<?xml version="1.0" encoding="utf-8"?>
<!-- Generator: Adobe Illustrator 21.1.0, SVG Export Plug-In . SVG Version: 6.00 Build 0)  -->
<svg version="1.1" id="Layer_1" xmlns="http://www.w3.org/2000/svg" xmlns:xlink="http://www.w3.org/1999/xlink" x="0px" y="0px"
	 viewBox="0 0 792 792" style="enable-background:new 0 0 792 792;" xml:space="preserve">
<style type="text/css">
	.st0{opacity:6.000000e-02;fill:#BE1E2D;enable-background:new    ;}
	.st1{opacity:6.000000e-02;fill:#FBB040;enable-background:new    ;}
	.st2{opacity:6.000000e-02;fill:#2B3990;enable-background:new    ;}
	.st3{opacity:6.000000e-02;fill:#006838;enable-background:new    ;}
	.st4{display:none;}
	.st5{display:inline;fill:none;}
</style>
<polygon class="st0" points="34.7,91.8 65.6,61.6 119.7,119.2 "/>
<polygon class="st0" points="261.6,297.5 322.3,304.4 293.8,354.6 "/>
<polygon class="st1" points="292,73 313.9,61.3 319.4,88.7 "/>
<polygon class="st1" points="66.7,420.9 48.3,377.5 150.1,382.1 "/>
<polygon class="st1" points="320.2,533.8 301.7,490.4 403.6,494.9 "/>
<polygon class="st0" points="239.4,218.2 140.7,204.9 156.3,262.1 "/>
<circle class="st2" cx="289.2" cy="174.5" r="11"/>
<circle class="st2" cx="165.4" cy="323" r="32"/>
<circle class="st3" cx="225.2" cy="407.9" r="42.9"/>
<circle class="st2" cx="83.4" cy="708.7" r="42.9"/>
<polygon class="st1" points="317.4,205.5 330.7,246.5 255,269.4 "/>
<polygon class="st3" points="106.3,271.9 73,323 40.8,275.2 "/>
<polygon class="st2" points="632.6,513 657.4,512.3 650.2,539.3 "/>
<polygon class="st3" points="143,27.3 190,30 140.7,119.2 "/>
<polygon class="st3" points="575.9,732.9 538.4,761.6 517.7,661.8 "/>
<polygon class="st0" points="246.3,190.6 302.2,108.1 244,96.6 "/>
<ellipse transform="matrix(0.4449 -0.8956 0.8956 0.4449 -170.587 408.2485)" class="st1" cx="244" cy="341.7" rx="11" ry="11"/>
<ellipse transform="matrix(0.4449 -0.8956 0.8956 0.4449 -19.0055 248.6827)" class="st2" cx="191.1" cy="139.7" rx="32" ry="32"/>
<ellipse transform="matrix(0.4449 -0.8956 0.8956 0.4449 -47.9858 493.5098)" class="st2" cx="374.1" cy="285.5" rx="32" ry="32"/>
<ellipse transform="matrix(0.4449 -0.8956 0.8956 0.4449 -135.5298 162.5545)" class="st1" cx="63.4" cy="190.6" rx="42.9" ry="42.9"/>
<polygon class="st0" points="171.5,750.5 141.3,719.6 198.9,665.4 "/>
<polygon class="st0" points="756.8,489.6 696.1,482.6 724.6,432.4 "/>
<polygon class="st0" points="353.5,461 292.8,454 321.4,403.8 "/>
<polygon class="st1" points="132.6,493.2 121,471.3 148.4,465.8 "/>
<polygon class="st1" points="480.6,718.4 437.2,736.9 441.8,635 "/>
<polygon class="st0" points="277.8,545.8 264.5,644.5 321.7,628.9 "/>
<circle class="st2" cx="234.1" cy="496" r="11"/>
<circle class="st2" cx="382.7" cy="619.8" r="32"/>
<circle class="st3" cx="467.6" cy="559.9" r="42.9"/>
<polygon class="st3" points="331.5,678.9 382.7,712.1 334.8,744.4 "/>
<polygon class="st2" points="439,431.5 463.8,430.8 456.6,457.8 "/>
<polygon class="st3" points="86.9,642.2 89.7,595.2 178.9,644.5 "/>
<polygon class="st0" points="250.3,538.8 167.7,483 156.2,541.2 "/>
<ellipse transform="matrix(0.4449 -0.8956 0.8956 0.4449 -261.831 659.8944)" class="st1" cx="401.4" cy="541.2" rx="11" ry="11"/>
<ellipse transform="matrix(0.4449 -0.8956 0.8956 0.4449 -421.3969 508.3129)" class="st2" cx="199.3" cy="594.1" rx="32" ry="32"/>
<polygon class="st0" points="534.1,112.4 591.2,128 577.9,29.3 "/>
<polygon class="st3" points="448.4,29.3 359.2,78.7 356.5,31.6 "/>
<ellipse transform="matrix(0.8956 -0.4449 0.4449 0.8956 2.9428 202.0204)" class="st2" cx="431.9" cy="94.7" rx="32" ry="32"/>
<ellipse transform="matrix(0.4449 -0.8956 0.8956 0.4449 -507.5251 624.8372)" class="st1" cx="250.3" cy="721.8" rx="42.9" ry="42.9"/>
<polygon class="st1" points="341.6,182.1 323.2,138.7 425,143.3 "/>
<circle class="st2" cx="528.9" cy="529.6" r="11"/>
<polygon class="st0" points="502.8,466.7 585.4,522.6 596.9,464.4 "/>
<polygon class="st1" points="521.3,582 564.7,563.6 560.2,665.4 "/>
<circle class="st3" cx="500.1" cy="169.1" r="42.9"/>
<polygon class="st2" points="608.6,160.5 609.3,185.3 582.3,178.1 "/>
<polygon class="st1" points="407.5,254.4 395.9,232.5 423.3,227 "/>
<polygon class="st1" points="485.1,73.5 504.7,58.4 514.7,84.5 "/>
<polygon class="st0" points="552.7,306.9 539.5,405.7 596.6,390.1 "/>
<circle class="st2" cx="509.1" cy="257.1" r="11"/>
<polygon class="st1" points="540.1,229 581.1,215.7 604,291.3 "/>
<polygon class="st3" points="361.9,403.4 364.6,356.3 453.8,405.7 "/>
<polygon class="st0" points="525.2,300 442.6,244.1 431.1,302.3 "/>
<ellipse transform="matrix(0.4449 -0.8956 0.8956 0.4449 -54.8873 621.9258)" class="st2" cx="474.2" cy="355.2" rx="32" ry="32"/>
<ellipse transform="matrix(0.4449 -0.8956 0.8956 0.4449 -433.7138 347.3772)" class="st2" cx="63.4" cy="523.6" rx="32" ry="32"/>
<polygon class="st0" points="639,101.9 693.2,44.3 724.1,74.5 "/>
<polygon class="st1" points="648.6,364.7 750.5,360.2 732,403.6 "/>
<circle class="st2" cx="695.4" cy="701.3" r="42.9"/>
<polygon class="st3" points="698,277.8 665.7,325.7 632.5,274.5 "/>
<ellipse transform="matrix(0.8956 -0.4449 0.4449 0.8956 -8.9132 328.5141)" class="st1" cx="695.4" cy="183.2" rx="42.9" ry="42.9"/>
<polygon class="st3" points="595,634.9 674,570.5 685.1,616.4 "/>
<ellipse transform="matrix(0.8956 -0.4449 0.4449 0.8956 -123.9462 333.5534)" class="st2" cx="648.6" cy="430.8" rx="32" ry="32"/>
<g id="text" class="st4">
	<rect x="144" y="100" class="st5" width="504.1" height="573.2"/>
</g>
<ellipse transform="matrix(0.8956 -0.4449 0.4449 0.8956 -170.3666 385.6632)" class="st1" cx="736.4" cy="555.8" rx="21.4" ry="21.4"/>
</svg>
